/* XPM */
static char *_9c17a4f77f8428b817f28305ca8061dTkGS1FV4msfw3ADi[] = {
/* columns rows colors chars-per-pixel */
"50 50 244 2 ",
"   c #5E2A09",
".  c #5B3212",
"X  c #6A2B12",
"o  c #6C2F13",
"O  c #7E3320",
"+  c #3E572B",
"@  c #017E3D",
"#  c #0C7C3C",
"$  c #057C37",
"%  c #137E3B",
"&  c #1B7B3C",
"*  c #1B7739",
"=  c #386938",
"-  c #257339",
";  c #36713F",
":  c #38733D",
">  c #2E6D34",
",  c #44552B",
"<  c #48542E",
"1  c #485530",
"2  c #5B5B34",
"3  c #565827",
"4  c #774F37",
"5  c #7B563C",
"6  c #795539",
"7  c #775434",
"8  c #56602E",
"9  c #486839",
"0  c #566538",
"q  c #48753D",
"w  c #097E43",
"e  c #127E43",
"r  c #1A7D41",
"t  c #267841",
"y  c #347240",
"u  c #3C7442",
"i  c #795943",
"p  c #6D5E41",
"a  c #437344",
"s  c #4B7343",
"d  c #477647",
"f  c #527445",
"g  c #716A48",
"h  c #961E14",
"j  c #911E0D",
"k  c #932A0C",
"l  c #8D2613",
"z  c #9D2515",
"x  c #9D251A",
"c  c #952917",
"v  c #983617",
"b  c #882D0E",
"n  c #AA251E",
"m  c #A32A1C",
"M  c #AA2B1C",
"N  c #A5261A",
"B  c #B72C1C",
"V  c #AB321D",
"C  c #A4381A",
"Z  c #BD321C",
"A  c #B6361C",
"S  c #A92B0C",
"D  c #832C23",
"F  c #843326",
"G  c #9B3626",
"H  c #9B2C26",
"J  c #A52423",
"K  c #AB2523",
"L  c #AC2B24",
"P  c #AE2529",
"I  c #AD2B2A",
"U  c #A62A24",
"Y  c #B32B24",
"T  c #BB2C25",
"R  c #B32C2A",
"E  c #BC2C2B",
"W  c #B5262A",
"Q  c #AA3726",
"!  c #BC3324",
"~  c #B6322B",
"^  c #BB332B",
"/  c #B63627",
"(  c #BD2E32",
")  c #B42932",
"_  c #BD3231",
"`  c #B83D34",
"'  c #AA3330",
"]  c #A51F26",
"[  c #C6351C",
"{  c #C12B1D",
"}  c #C32D24",
"|  c #C32C2B",
" . c #CC2D2B",
".. c #C62A2A",
"X. c #C33424",
"o. c #CB3125",
"O. c #C4332A",
"+. c #CC332C",
"@. c #CA3B26",
"#. c #D3342D",
"$. c #DB352E",
"%. c #D43A2D",
"&. c #DB3B2E",
"*. c #D53727",
"=. c #C12E32",
"-. c #C92C31",
";. c #C43232",
":. c #CD3432",
">. c #CB3936",
",. c #D43533",
"<. c #DB3533",
"1. c #D43A32",
"2. c #DC3B34",
"3. c #D3343A",
"4. c #DB3D3A",
"5. c #D63A3D",
"6. c #D22F31",
"7. c #E73B2D",
"8. c #E33B34",
"9. c #EA3C33",
"0. c #E33C3A",
"q. c #ED3D3C",
"w. c #E33535",
"e. c #F23F39",
"r. c #F13D2C",
"t. c #96491E",
"y. c #AE421A",
"u. c #B8441D",
"i. c #835535",
"p. c #83553B",
"a. c #8C543A",
"s. c #865A3C",
"d. c #885A39",
"f. c #965838",
"g. c #8A502F",
"h. c #AD472A",
"j. c #BB482A",
"k. c #B74A34",
"l. c #A35A36",
"z. c #BC5632",
"x. c #AC5829",
"c. c #89613C",
"v. c #B36338",
"b. c #AF673F",
"n. c #CA4729",
"m. c #D9452D",
"M. c #C7552D",
"N. c #C64936",
"B. c #DC4135",
"V. c #D84736",
"C. c #C85836",
"Z. c #D65738",
"A. c #D4522B",
"S. c #E4432E",
"D. c #E44234",
"F. c #E4443B",
"G. c #EB443B",
"H. c #E84738",
"J. c #F34235",
"K. c #F6453C",
"L. c #E25336",
"P. c #C96038",
"I. c #E6643D",
"U. c #EA3D40",
"Y. c #F53C44",
"T. c #885A42",
"R. c #985A44",
"E. c #9D4F42",
"W. c #A45B48",
"Q. c #B05C4F",
"!. c #8A6448",
"~. c #986747",
"^. c #9D775A",
"/. c #867851",
"(. c #AB644C",
"). c #A7674A",
"_. c #B76646",
"`. c #B86952",
"'. c #A97458",
"]. c #B87759",
"[. c #B46E4C",
"{. c #B77C66",
"}. c #D94B44",
"|. c #CD5545",
" X c #D75446",
".X c #E84743",
"XX c #FA4442",
"oX c #F74744",
"OX c #E55144",
"+X c #EE5A4D",
"@X c #C56C4C",
"#X c #DA6744",
"$X c #C6714A",
"%X c #C86857",
"&X c #D5675A",
"*X c #C67359",
"=X c #D77E54",
"-X c #D67B4F",
";X c #FE7754",
":X c #EF704E",
">X c #C77663",
",X c #D07467",
"<X c #FF7B62",
"1X c #008A33",
"2X c #02853D",
"3X c #0B823D",
"4X c #01893D",
"5X c #038536",
"6X c #13813C",
"7X c #018542",
"8X c #0C8242",
"9X c #018943",
"0X c #02844A",
"qX c #0A8848",
"wX c #138344",
"eX c #168445",
"rX c #708C5C",
"tX c #A18263",
"yX c #D98658",
"uX c #E7865B",
"iX c #FE845D",
"pX c #F98658",
"aX c #F5915E",
"sX c #D89661",
"dX c #DC8861",
"fX c #FA8863",
"gX c #E99566",
"hX c #FC9364",
"jX c #FE9C6D",
"kX c #F69968",
"lX c #FC9E73",
"zX c #E28661",
"xX c #FAA26C",
"cX c #FEA574",
"vX c #FFAB74",
"bX c #FFB57B",
"nX c #FFBB7D",
"mX c #FFB276",
"MX c #E0A063",
"NX c #FFBB83",
"BX c #FFBC8A",
"VX c #FFB582",
"CX c #FFC283",
"ZX c #FFC28B",
/* pixels */
"9X7X3X2X7X9X9X7X3X8X3X8Xw w qXr = 2 2 2 2 2 2 9 > - u a 2 8 8 8 8 8 2 9 & 2X4X9X7X9X0X7X7X7X2X2X7X9X",
"7X7X2X2X9X7X9X7X2X@ 7X8XqXw r ; /./.~.~.~.~.~.~.rXd f g !.~.~./.~.~.^.g : & 6X4X9X9X7X7X7X2X9X2X2X7X",
"7X7X2X4X7X9X7X7X2X9X2X2X7Xr s ^.&X|. XOXOXL.OX|.{.p g >X|.OX+X}. X}. X%X~.2 - wX9X9X7X2X2X4X9X7X7X2X",
"8X7X2X4X9X7X7X9X9X2X4X4X& = ^.%XL.oXoXXXJ.J.r.L.>XT.T.,XOXe.Y.oXXXXXY.oX|.f.0 - 3X9X7X9X7X2X7X7X9X7X",
"w 7X4X4X2X7X7X7X4X4X4X6X0 ].&XL.K.J.K.J.L.pX;XP.].!.T.*XC.iX;XS.K.XXXXXXoX Xl.2 * 4X7X0X8X7X7X9X2X9X",
"7X7X2X2X3X7X7X7X2X3X6X9 '.&XL.K.K.oXK.S.pXnXnXaX'.i T.tXxXNXmXiXr.K.e.K.XX.X}.).9 & w 0Xw 7X9X9X7X7X",
"0X9X7X4X7X7X7X7X9X6X1 '.&X}.H.S.H.J.oXF.I.kXjXzX].i !.`.-XaXcX:XS.K.J.J.H.F..X Xf.f - w 0X0X7X9X7X9X",
"9X9X2X2X2X7X7X8X& a '.&X.Xw.L.;X+XH.q.D.j.z.j.h.{.T.d.].h.j.z.n.H.J.S.+X;XL.J.G.|.f.9 r w 0X7X2X2X2X",
"0X9X7X4X4X7X2X& 0 ^.&XU.K.&.cXNXcXI.7.J.B.%.} N.*Xs.d.].M.@.*.F.e.S.#XZXbXhXS.H.F.|.R.0 * 2X4X3X7X7X",
"9X7X2X2X9X9X7X; ^.&X5.U.e.S.hXgXVXI.S.e.G.q..X X*X7 i.*XZ.q.q.q.Y.F.I.kXmXxXV.9.K.D.|.T.: 5X5X3X2X9X",
"w 7X7X2X9X0X6Xq >XB..XoXS.*.u.P.n.n.9.9.q.U.q.V.].i s.*XV.e.e.Y.Y.w.@.n.C.j.2.G.7.q..X].d 3XqX4X9X2X",
"7X2X9X7X9X9XwXf &X4.m.m.7.L.[ B X.4.J.G.D.F.&. XyXi p.>XV.7.*.G.U.U.9.o.Z >.B.D.S.D.8.,Xs eX4X4X7X7X",
"7X7X9X9X7X7X6Xd *X XfXfXV.7.2.H..X0.q.D.V.iXiXz.].d.f.*X|.fXiXA.%..X7.9.S.H.S.A.pXpXA.%Xf $ 4X4X4X7X",
"7X2X9X7X0X7X3Xs _.hXBXNX<X$.F.0.0.q.w.&.fXBXNXgX'.a.a.[.kXZXbX;Xm.9.r.9.9.G.o.fXZXnXiX@Xs # 4X4X2X7X",
"2X2X7X7X0Xw 8Xq @XZ.kXvX+X%.F.0.9.8.9.%.Z.aXcX-X].7 a.].$XgXcX&X:.G.9.7.7.q.1.#XaXkX:X@Xs # qX7X7X9X",
"2X2X7X7X8Xw % q `.[ y.y.! B.2.q.2.8.0.B./ A u.y.[.a.a.[.t.y.j./ 5.0.7.w.0.0.4.! y.u.[ %Xf eX7X0X7X7X",
"7X7X7X7X7X3X& f %X1.Z Z 4.w.w.w.9.$.w.8.%.{ { N.`.T.a.].k.E T 4.4.$.8.7.<.0.4.5.{ Z &.&Xq % 8X2X7X7X",
"7X7X7X7X4X2X% f %X4.4.&.w.0.0.$.<.w.0.2.0.2.0.N.].a.a.`.5.}.4.$.7.w.$.8.0.0.<.<.D.2.F.%Xf 6X4X2X4X7X",
"9X7X9X7X7X2X6Xf &X2.&.B.<.w.#.0.w.0.<.2.2.$.2.>.*Xa.a.>X>.,.2.2.$.0.<.<.<.<.U.0.%.2.<.%Xq # qX0X7X7X",
"4X4X7X7X7X8XwXf %X%.[ @.1.<.2.$.<.w.#.1.@.@.@.j.].a.g.%X/ *.@.%.<.<.<.$.5.1.,.O.@.@.<.%Xs eX@ 7X7X7X",
"5X5X2X7X9X0X8Xs @Xm.xXpXn.%.2.2.<.<.4.@.A.aXhXz.[.T.R.[.P.hXpXn.%.3.<.$.*.%.*.Z.kXpXA.`.s # qX0X7X7X",
"5X5X8X7X0X0X8Xs b.fXnXCX;Xo.%.#.<.,.%.X.pXnXmXgX).T.p.).kXZXbXpXO.5.,.2.o.m.[ pXZXCXiX_.f r w 0X7X7X",
"3X2X7X7X9X9X6Xd _.A.yXxX#X{ B.#.,. .5.;.M.uXjX[.'.4 T.).v.uXlX#XO.1.o.&.%.%.{ Z.yXMX#X_.9 % wX7X2X7X",
"7X7X8X7X9X9X3Xd @XS v t.Y >.o.%.#.4.6.>.M C C v '.i.d.'.v C C m @.#.%.#.o.%.+.M v y.A `.q 6X5X4X7X9X",
"0X0X0X7X4X3X% d %X-.W E 3.6.+.#.,.+.+.:.O.Y E ` `.i.d.(.` T T O.$.#.+.,.:.,.3.:.T B ,.`.a # 8X7X9X2X",
"0X0X0X7X2X3X% s `.5.3.6.6.3.3.o.+.+.1.#.:.:.3.` `.i.d.`.` :.,.#. .,. . .:.3.3.-.6.<.6.%Xs 2X2X7X7X7X",
"9X9X9X2X5X3X% f `.,.o.o.-.-.,.:.:.o...o.:.:.;.` [.i.i.(.Q.-.+. .+.#. .+.3.| 3.5.#.#.1.Q.d 3X7X2X9X7X",
"4X4X2X2X2X3X% q _.[ Z @. .:. . .+.+.o.@.! O.^ h.).!.7 [.L j.! O.:.+.:.+.-.,.| T Z X.O.@X: 8X2X0X2X7X",
"1X5X2X2X4X2X6Xq b.A.cXaXN.^ O.o.+.@.o.Z A.jXhXx.).5 s.~._.lXhXj.^ | :.O.o.%.Z C.cXhXN.).s 3XqX7X7X2X",
"5X5X# 7X7X2X3Xq l.fXNXZXfXB O.} E +.X.B uXNXNXgXc.6 T.~.gXVXBX;XY O.O.%.o.{ B pXNXVXpXf.q wXw 0X7X9X",
"7X7X0X7X7X7X3Xq ).j.uXgXN.Y O.O.O.| ;.Y k.yXkXb.).i.d.l.l.uXkXk.B :.o.| ! ^ Y z.yXxXC.).: % qX2X7X7X",
"0X0X0X7X9X9X3Xa (.m k v m ^ ! O.E ;.;._ x v c F ).i.i.~.v c v m ^ | | o.^ _ ^ c v k N (.q # 3X8X7X7X",
"7X7X7X7X2X3X% d Q.~ V M ^ E E | | E | ( ~ L U Q ~.p.i.).G Q L / E O.E T -.( ( ~ V N ^ (.a 8X8X2X2X7X",
"7X7X7X2X2X2Xe a Q.( T ! O.( -.E T T ;.( ( ^ ` ' '.4 i.(.Q ^ _ E T O.} T -.) ( ) / / E Q.a eX2X2X4X7X",
"0X7X7X4X0X7Xe s Q.E Y ^ E E | E } E E E E T T Q (.5 i.W.Q Y E E T E E =.=.W -.^ Y Y O.W.s % 2X7X2X7X",
"7X2X2X4X0Xw e s Q.T / A M T E E B E R E M ! A Q W.T.p.W.Q / ! Y / Y W ( .. .Y S / C L `.9 wX@ qX9X7X",
"1X5X4X2X7X7Xe s f.M.vXxXn.V T Y / R R n M.vXxXx.~.i 7 ~.v.vXhXj.M E R ! T } S M.mXjXM.W.q wXqX@ 7X7X",
"1X1X2X2X9X0Xe s l.aXmXCXuXz ~ Y L ^ ) U uXnXnXsXT.i T.c.MXnXnXuXx ~ Y Y B B S uXnXnXuXf.: r @ qX2X9X",
"4X7X7X7X7X7Xe d f.Q -XyXk.x L Y P P ( U C $XuXl.T.6 i c.t.yXyXh.m R L Y ( R x k.-XgXk.R.a e qX2X7X7X",
"0X7X0X7X2X2Xe d W.c b b l Q R L L ) ) I l c l o R.6 6 c.O o k k L L R R P P ' h b b l W.a 8X@ 2X2X9X",
"0X7X2X2X4X2X8Xa E.I m x I K L Y Y L R U U x x G !.7 i R.G m U U N Y I P ) P I L x z R W.a # 7X7X7X7X",
"w 7X2X2X2X2X8Xa W.I K L L K W n n n N L L L J Q R.5 4 R.H R P Y n Y K P ) P L U n I K E.a # 2X2X2X9X",
"0X0X4X4X2X5X3Xu R.P N L K P W K E n L N L N Y H ~.i i R.H K L K Y K K P ) ] P I U M Y W.a 3X8X7X2X7X",
"7X0X4X2X5X3X3Xu R.J V V x J K K n K K K k Q Q c a.i 4 R.l ~ V M K K L K ] I x z Q V N W.: 8X$ 2X7X7X",
"1X1X4X4X3X3X3Xa g.z.NXvXz.H J N J R J H z.bXvXx.T.i i p.b.nXcXh.N K N M z m k C.VXjXj.f.: 8XqX@ 2X7X",
"1X1X2X2X2X2Xe : g.uXbXCX=Xj J J J K J h yXbXCXsX4 p i 7 sXnXNXyXj P N M m x k uXbXbXfXg.u wX2XqX7X9X",
"7X0X7X7X9X2Xe a a.v $X=Xh.c J K K ] U z k $X=Xg.T.2 i i.F $XyXC h I J h K P c v [.yXh.a.a e qX$ 2X7X",
"0X0X7X7X7X7XwXu i X .   X O F l D F F O o X   . p p 2 6 . X   X F D F F D D F X . X X i y e 7X7X7X9X",
"0X7X7X7X7X7X8X& = , + + , < < < < < , < , , + + = = = = + + + , , 1 < < < 1 1 < + , , = * w 0X2X7X7X",
"7X7X7X7X2X2X7X% t y ; ; ; ; ; ; ; ; ; ; ; ; y ; - r r t y y ; y y y ; ; y y u ; ; ; ; - r 7X2X7X7X2X"
};
