/* XPM */
static char *_ff91147bbf5430cb0b257190d53d10aaxGzIy7gBsITvpby[] = {
/* columns rows colors chars-per-pixel */
"50 50 233 2 ",
"   c None",
".  c #190D09",
"X  c #15100D",
"o  c #261B17",
"O  c #341C15",
"+  c #2D150C",
"@  c #3C2119",
"#  c #382A2C",
"$  c #501514",
"%  c #650C0B",
"&  c #68110F",
"*  c #7B1B1C",
"=  c #751616",
"-  c #661713",
";  c #472716",
":  c #582713",
">  c #5A321A",
",  c #42200F",
"<  c #662C1A",
"1  c #66381C",
"2  c #74331D",
"3  c #78271C",
"4  c #441F22",
"5  c #761E22",
"6  c #472D26",
"7  c #553628",
"8  c #4B312E",
"9  c #772125",
"0  c #6A3724",
"q  c #743B25",
"w  c #6D2736",
"e  c #6D292F",
"r  c #7A4926",
"t  c #674838",
"y  c #784837",
"u  c #795638",
"i  c #6C482E",
"p  c #574038",
"a  c #1E2549",
"s  c #24294A",
"d  c #242B53",
"f  c #242E59",
"g  c #25305E",
"h  c #2A3259",
"j  c #393A57",
"k  c #273261",
"l  c #293564",
"z  c #293769",
"x  c #2C396D",
"c  c #2D3966",
"v  c #343B65",
"b  c #2D3C73",
"n  c #2F3F78",
"m  c #303F78",
"M  c #4F364D",
"N  c #79354A",
"B  c #6D3B59",
"V  c #713149",
"C  c #6A3D64",
"Z  c #593F6B",
"A  c #2F4079",
"S  c #32427D",
"D  c #3A4678",
"F  c #3B4064",
"G  c #775742",
"H  c #6E4A51",
"J  c #7E6347",
"K  c #434677",
"L  c #494A72",
"P  c #6B4A6A",
"I  c #5D585A",
"U  c #851C1E",
"Y  c #8B1919",
"T  c #991817",
"R  c #A41A19",
"E  c #AD1B1A",
"W  c #B21E1D",
"Q  c #902B1F",
"!  c #851E21",
"~  c #9C2325",
"^  c #962427",
"/  c #902F32",
"(  c #A32526",
")  c #AC292B",
"_  c #A62828",
"`  c #B32B2C",
"'  c #B92726",
"]  c #BC2E31",
"[  c #B22D32",
"{  c #B93535",
"}  c #A42F34",
"|  c #CD2624",
" . c #C62725",
".. c #DE2C2A",
"X. c #D42B29",
"o. c #DC312F",
"O. c #C43234",
"+. c #CB3437",
"@. c #D7383A",
"#. c #E62F2E",
"$. c #ED3432",
"%. c #E73B39",
"&. c #F23A38",
"*. c #E9302E",
"=. c #874A24",
"-. c #84532C",
";. c #8C542A",
":. c #975527",
">. c #844838",
",. c #865832",
"<. c #964E2F",
"1. c #A45B29",
"2. c #956736",
"3. c #AA632E",
"4. c #BA6A33",
"5. c #AE723F",
"6. c #B16930",
"7. c #F7413F",
"8. c #C97A3C",
"9. c #E43D41",
"0. c #985846",
"q. c #885651",
"w. c #A65A48",
"e. c #AD4848",
"r. c #8A664D",
"t. c #98614B",
"y. c #977659",
"u. c #9B6D54",
"i. c #A96752",
"p. c #AC6F50",
"a. c #8B6B6B",
"s. c #957878",
"d. c #96766D",
"f. c #AD7366",
"g. c #BC7A63",
"h. c #B57A64",
"j. c #B56E6E",
"k. c #CE4D4E",
"l. c #EC4646",
"z. c #F44747",
"x. c #F44D52",
"c. c #E95755",
"v. c #F95858",
"b. c #F2504E",
"n. c #D07F40",
"m. c #E46262",
"M. c #F86866",
"N. c #D06566",
"B. c #9B817F",
"V. c #BA8C73",
"C. c #AD906A",
"Z. c #B98555",
"A. c #D68748",
"S. c #C8864C",
"D. c #E69654",
"F. c #EB964C",
"G. c #F7A45A",
"H. c #C6846E",
"J. c #C98E74",
"K. c #D7997B",
"L. c #CB9671",
"P. c #EBA362",
"I. c #F5AC67",
"U. c #D5A048",
"Y. c #354785",
"T. c #384C8C",
"R. c #384A87",
"E. c #3A4E92",
"W. c #3C5195",
"Q. c #3E549B",
"!. c #3F589F",
"~. c #3E59A1",
"^. c #455489",
"/. c #41579E",
"(. c #44589B",
"). c #51528B",
"_. c #64578D",
"`. c #4B609D",
"'. c #666097",
"]. c #4259A3",
"[. c #445EAB",
"{. c #4157A0",
"}. c #4760AE",
"|. c #4D67AD",
" X c #4963B3",
".X c #4C69BC",
"XX c #4A67B7",
"oX c #5874BA",
"OX c #576EB7",
"+X c #4E6DC3",
"@X c #506EC3",
"#X c #5374CB",
"$X c #5776C7",
"%X c #5A7CD3",
"&X c #4F70C7",
"*X c #6687D7",
"=X c #7798DF",
"-X c #968484",
";X c #A58B8A",
":X c #A18585",
">X c #A7908F",
",X c #AC9593",
"<X c #B39C9A",
"1X c #B19896",
"2X c #BA998F",
"3X c #A59FA4",
"4X c #BBA8A6",
"5X c #BDB0AE",
"6X c #BCA296",
"7X c #CE9C81",
"8X c #C9A788",
"9X c #DDA58A",
"0X c #D7B197",
"qX c #E8B698",
"wX c #E9AF8D",
"eX c #CCBBB7",
"rX c #D7BFB7",
"tX c #CCB2AA",
"yX c #D3C0BB",
"uX c #F4C6A7",
"iX c #F9D7B6",
"pX c #F2C9A7",
"aX c #FBE2BF",
"sX c #DACAC6",
"dX c #E0CFCA",
"fX c #E1D1CD",
"gX c #E6DAD5",
"hX c #FBE9CB",
"jX c #ECE4DF",
"kX c #FBF7D4",
"lX c #F2EBE7",
"zX c #F9F8F5",
"xX c #F1ECE8",
/* pixels */
"                                                                                                    ",
"                                                                                                    ",
"                                                                                                    ",
"                                                                              M.v.b.v.v.v.M.        ",
"                                                                          v.x.7.z.7.7.7.z.b.M.      ",
"                                                                      v.b.7.&.&.&.&.&.&.7.7.c.      ",
"                                                                  m.b.&.&.$.*.*.$.*.$.*.#.%.k.      ",
"                                                                c.l.$.*.*.*.#.#.*.*.*.#.o.+.k.      ",
"                                                        m.c.l.b.$.#...#.........X.X.X.X. .) e.      ",
"                                                        k.+.X.| | | | | | |  . .'  .W W W ] N.      ",
"                                                        { _ _ W E E E E R R R T R R E ' @.7.z.v.M.  ",
"                                                        } ~ T T Y Y w.H.w.= % & * <.<._ ~ ) ] ] +.1.",
"                                                        / Q Y & % / pX0XJ.y + O r.9XL.h.H , % % & & ",
"                      zXzXzXzXzXzXzXxXm.x.v.v.v.        / U % + + d.9Xh.i.y O @ r.uXqX0X2X> % %     ",
"                      jXzXzXlXlXzXzXlXN.9.l.z.z.z.x.      O . . o V.K.p.0.>.@ @ 6 7XuXrX3X          ",
"                      sXgXzXlXlXlXgXgXj.+.@.@.+.@.9.x.    o . . O f.K.p.w.r.@ @ 7 8XuXrX-X          ",
"                      4XsXfXdXfXdXeXtXj.( ] O.' O.@.9.x.v.8 o o o G H.K.K.H.@ p 0XhXiX4X8X          ",
"                      ;X1X;X<XeXdXtX>Xq.= U ~ ( ] +.@.9.9.e.O O O @ >.J.wXwXV.7XiXaXyXp L.qXiXkXkX  ",
"                      -Xs.;XyXsXsX<Xa.P     U T ( ) O.@.@.@.e O O + 7 t.g.K.wXqXpXpX8Xo t K.uXhXkXhX",
"                        ;XtXsXtX<X,X          N ! ~ ) ] ] [ ! 4 o . y w.p.g.J.K.9XqXqXt X 0.K.qXuXpX",
"                          4X:Xs.              '.^ = U ~ ) _ ( N ^.6 >.>.<.0.p.g.H.K.wXd.. 6 w.g.J.9X",
"                                            oX_.^ * = U ) [ ) P $XP 2 < 0 q >.0.i.h.g.y.X o q.t.f.  ",
"                                            $X).^ } ~ ~ ) ] / `.$XH Q 2 : < 0 / ,.w.g.h.            ",
"              C.p.                        *X&X(./ O.+.O.+.} _..XOXV 3 2 < : < 0 >.0.h.              ",
"            J t.5.5.                  =X*X%X&X[.C ( ] +.[ L  X X).9 - <       < e t.yXzXxXzXzX      ",
"          u u r 2.,.u               *X*X%X#X@X[.T.w } [ C [.{.(.B * - w           eXsXjXzXzXjXzX    ",
"          r r 1 1 p L oX          oX$X$X#X+X.X X/.K C C {.{.E.Z } ! - B k.      sX,X:X1XsXfXgXjX    ",
"        ,.r 1 : 8 R.~.OX          `.}.XX X.X.X}./.m K P ).E.K / ) _ w C } k.k.rX5Xs.a.s.-X4XeXeX    ",
"    u u ;.r > 8 D !.~.~.|.      (.D (.].~.}. X[.W.F y.U.0.F V ( ^ ~ M w ^ { { j.5Xs.a.-X1X4XtXeX    ",
"  u u 2.;.r 7 F T.T.E.E.Q.}.XX&XE.l D T.E.Q.~.~.E.j 3.6.u M ^ ( ^ w M = ! ) ( / ,X,Xs.,X4X1X<XeX    ",
"u u ;.r r > p R.A A S R.Q.}.XX XE.z g x S T.W.!.W.F M i j K N ^ V L 5 = U ~ ~ * q.>XB.d.B.;X;X;X    ",
"r r r r 1 @ F A x z A R.E.!.}.~.T.z a g g A Y.W.Q.S b m [.&X%X'.K     * * U U = 5 a.;X              ",
"r 1 1 1 ; # j z x k l S Y.T.E.Y.A g a a f g A W.!.{.Q.}..X@X#X$X$X        !                         ",
"1 1 : : O # s a g g g c A S A b g f a a d k l A Y.W.{./.[. X.X@X$X                                  ",
"  > ; @ @ @ h s d d d f k z x z f d s a a h h h k m W.Q.E.]. X.X#X%X                                ",
"                        f f d d d               d k x S T./. X.X.X#X%X                              ",
"                                                    c x S R./.Q.[.&X&X%X*X  p.F.G.G.G.              ",
"                                                      v g R.T.T./..X+X+XOXr.8.F.G.I.G.P.            ",
"                                                        R.Y.m S E.}.[..XP 3.n.D.P.I.D.S.            ",
"                                                          x b m E.].~.).,.4.A.U.P.P.A.L.            ",
"                                                          k z Y.E.~./.t 1.4.n.A.D.A.Z.8X            ",
"                                                          F A R.Q.W.M =.3.8.8.A.8.5.C.              ",
"                                                            R.R.E.v i 1.6.4.4.4.3.y.                ",
"                                                            T.S v 7 :.1.6.1.1.;.r.                  ",
"                                                            ^.j 7 =.:.1.1.<.u r.                    ",
"                                                              0 =.:.:.:.-.u                         ",
"                                                                =.=.Q r J                           ",
"                                                                r 2 i u                             ",
"                                                                    t                               ",
"                                                                                                    "
};
