/* XPM */
static char *_2b16d31a9624cb1e77dafa5d9d308069gPWtliM1jFAtsig[] = {
/* columns rows colors chars-per-pixel */
"50 50 252 2 ",
"   c #0E0000",
".  c #120000",
"X  c #1F0D00",
"o  c #301200",
"O  c #343A18",
"+  c #382C09",
"@  c #490600",
"#  c #5A0302",
"$  c #481308",
"%  c #541406",
"&  c #551712",
"*  c #650602",
"=  c #790705",
"-  c #771206",
";  c #791616",
":  c #6E120D",
">  c #5A2818",
",  c #4E2C0F",
"<  c #65261B",
"1  c #69290E",
"2  c #543627",
"3  c #653428",
"4  c #7E1E22",
"5  c #0C6E38",
"6  c #04753A",
"7  c #0B743B",
"8  c #037C3B",
"9  c #0B7B3C",
"0  c #077635",
"q  c #13743D",
"w  c #13773C",
"e  c #176A3A",
"r  c #296E3D",
"t  c #3F461D",
"y  c #504E33",
"u  c #734639",
"i  c #674634",
"p  c #556434",
"a  c #72693A",
"s  c #6B5615",
"d  c #047D42",
"f  c #0B7C43",
"g  c #0A7644",
"h  c #147543",
"j  c #137A43",
"k  c #1B7748",
"l  c #176B46",
"z  c #237C4B",
"x  c #277A48",
"c  c #297C51",
"v  c #30744A",
"b  c #3D5249",
"n  c #485B4D",
"m  c #76584B",
"M  c #6E5045",
"N  c #4E695D",
"B  c #5A7756",
"V  c #506E50",
"C  c #6F7453",
"Z  c #557566",
"A  c #586D68",
"S  c #69796E",
"D  c #870B06",
"F  c #970705",
"G  c #861608",
"H  c #951208",
"J  c #961717",
"K  c #8E1313",
"L  c #A80904",
"P  c #B80C08",
"I  c #A51409",
"U  c #B9130D",
"Y  c #A81616",
"T  c #BA1716",
"R  c #AD0D11",
"E  c #963B1A",
"W  c #8A2312",
"Q  c #AB221A",
"!  c #AC321B",
"~  c #BB1922",
"^  c #8E2A27",
"/  c #AF2625",
"(  c #9B1C25",
")  c #CC0D0D",
"_  c #C90A07",
"`  c #D40303",
"'  c #DC0202",
"]  c #DC050B",
"[  c #D30B0B",
"{  c #DC0B0B",
"}  c #D60807",
"|  c #CA120B",
" . c #D31109",
".. c #C60E12",
"X. c #D40F15",
"o. c #CC1213",
"O. c #C71718",
"+. c #D51313",
"@. c #E30102",
"#. c #E90101",
"$. c #E3020A",
"%. c #E5080A",
"&. c #E10D13",
"*. c #C6241A",
"=. c #C52227",
"-. c #A6502B",
";. c #B36937",
":. c #95411F",
">. c #C0783E",
",. c #953F40",
"<. c #954643",
"1. c #8D554D",
"2. c #A95352",
"3. c #897454",
"4. c #B06F50",
"5. c #91756A",
"6. c #B36B67",
"7. c #CB7B50",
"8. c #008435",
"9. c #01853D",
"0. c #01893D",
"q. c #09863C",
"w. c #028542",
"e. c #0A8444",
"r. c #028943",
"t. c #028349",
"y. c #0C844A",
"u. c #038A48",
"i. c #098A4A",
"p. c #0A8A43",
"a. c #148348",
"s. c #069046",
"d. c #088553",
"f. c #268655",
"g. c #368A57",
"h. c #2C8651",
"j. c #3B8864",
"k. c #399367",
"l. c #4A8859",
"z. c #478B64",
"x. c #46996B",
"c. c #579A75",
"v. c #588D6D",
"b. c #669B78",
"n. c #6E8F6D",
"m. c #56A476",
"M. c #6CA77A",
"N. c #8D8450",
"B. c #A8995B",
"V. c #958367",
"C. c #948B79",
"Z. c #918C70",
"A. c #AC9A6A",
"S. c #B19A71",
"D. c #B4A671",
"F. c #85A37F",
"G. c #CD8253",
"H. c #C5B577",
"J. c #C7AA77",
"K. c #ECAE7A",
"L. c #E89875",
"P. c #F4CE7C",
"I. c #EED47B",
"U. c #F4D37C",
"Y. c #F9D67D",
"T. c #F9D87D",
"R. c #E8CC76",
"E. c #709983",
"W. c #53AD84",
"Q. c #66AA87",
"!. c #74A78A",
"~. c #67B486",
"^. c #7BB78D",
"/. c #79AB93",
"(. c #78B893",
"). c #74C194",
"_. c #7AC8A1",
"`. c #8A988B",
"'. c #B09991",
"]. c #85A88C",
"[. c #85AB99",
"{. c #88B797",
"}. c #94B998",
"|. c #94AC90",
" X c #A8AF97",
".X c #98B7A4",
"XX c #8CBFAC",
"oX c #B3BBA7",
"OX c #CE8F8E",
"+X c #CDB28A",
"@X c #EEB585",
"#X c #DAA1A1",
"$X c #C7ADA6",
"%X c #EAB4B0",
"&X c #8DC39A",
"*X c #8AC5A5",
"=X c #96C8A5",
"-X c #98CBB2",
";X c #9AD4B3",
":X c #B5D4B8",
">X c #A7CDAE",
",X c #8BE0B7",
"<X c #DCC995",
"1X c #E3CA87",
"2X c #EED482",
"3X c #ECD88A",
"4X c #F5D582",
"5X c #FAD583",
"6X c #F6D982",
"7X c #FBDA83",
"8X c #F4D68A",
"9X c #FCDC8A",
"0X c #F9D78B",
"qX c #FDDD95",
"wX c #FDDC9B",
"eX c #F6DA96",
"rX c #E8D093",
"tX c #FCE18B",
"yX c #FEE294",
"uX c #FDE39C",
"iX c #F6E198",
"pX c #CEC9B6",
"aX c #FEDAA5",
"sX c #E3D2A4",
"dX c #FEE4A3",
"fX c #FBE6A6",
"gX c #FFE4B1",
"hX c #B6D4C5",
"jX c #B6F1CD",
"kX c #B2EFCF",
"lX c #BDFFF1",
"zX c #CBDBD8",
"xX c #CBCDCE",
"cX c #F5C8C6",
"vX c #FDD9D9",
"bX c #F3D1D0",
"nX c #C4F9DB",
"mX c #F0E5DA",
"MX c #FFDDE4",
"NX c #DBFFED",
"BX c #DAFFF3",
"VX c #CDFBED",
"CX c #FFE9E7",
"ZX c #E9FCEB",
"AX c #FEF6EC",
"SX c #E9FFF7",
"DX c #FFF5F4",
"FX c #F3FDF3",
"GX c #FEFBF3",
"HX c #F3FEFC",
"JX c #FDFDFD",
"KX c #FDF5FA",
/* pixels */
"r.r.w.9 r.r.w.w.0.9.0.r.w.w.e.q.q.q.q.6 5 j k f.k.j.g.v k 5 6 9.p.w.r.r.i.d w.w.r.9.r.r.r.w.u.w.w.r.",
"9.9.w.w.w.9.w.w.r.9.0.0.9.e.y.f 7 5 g.m.{.{.=X[.].].|.}.}.{.c.h.5 6 e.y.d d.w.9.r.9.r.r.r.w.8 u.w.w.",
"9.9.0.r.w.r.w.w.9.r.8.0.9.w.g l b.=X X5.u < % % $ $ $ & > u 5. X=Xx.w 8 t.8 r.r.u.w.w.d r.r.9.r.r.w.",
"9.0.0.r.w.d w.w.0.0.0.q.8 w Q.>XC.3 $ & < < 3 u 1.1.u > > 3 < o i Z.>Xv.5 q.p.9.8.w.w.w.9.r.w.8 w.9.",
"r.9.0.r.w.w.w.9.9.w.f 5 z.>X5.< = J ^ > C v.v.n.=X{.z.v B p < ^ K = < '.>Xl.0 a.y.y.d w.w.9.p.q.9.r.",
"r.r.9.r.w.f 9.9.r.9 q /.oX3 * K / W > 3.b.r 9 9 9 0 e.8 z b.n.$ K / J # 3 oXM.q 7 p.9.9.u.w.9.9.9.w.",
"w.t.t.w.w.w.r.w.g x -XC.# H *.Q < + v x 0 q.q.q.q.s.s.0.e.7 e p O 1 Y =.H # `..Xk 0 0.u.w.t.r.r.w.w.",
"t.w.w.w.t.w.w.e.c :Xm # T ) ) F M B k g q.q.9 0 w 0 0 0 8 e.y.a.r , H ..o.Y # C >Xh.8 i.8 u.r.9.r.9.",
"w.w.9.9.w.t.d z hXi = O.) _ Y W AX].l k y.g x.(.=X;X*X(.x.j j k r pX^ R ..[ T = M hXz w.8 r.r.r.w.w.",
"t.9.8.9.t.d.k hXi = O.] ` o.= %XGXSXnX_.k ).VXSXBXZXSXBXVXf.m.kXhXGXsXD o.] ] O.= i :Xw e.w.8.9.9.r.",
"0.0.8.0.d l -Xm = | ' %.{ R ,.DXGXZXHXjXl ,XBXjX~.c Q.VXlXl *XBXHXHXHX<.R $.$.` O.= M ;Xl y.0.0.9.r.",
"s.0.8.q.h /.C.& O.@.' ' ] F OXJXFXFXHX-Xl g.W.x 7 f g k.W.l /.SXJXHXHX$XF ] @.@.' o.# C.(.k 8.9.9.9.",
"9.r.0.9 z. X@ Y ) ' ' ' [ F cXJXJXHXHX-Xg f j j u.u.9.8 d h (.SXSXHXHXbXF X.] ' ' _ Q @  Xc k u.r.9.",
"w.r.e.h ;Xy : Y ) ' %.] ) J CXHXHXHXBX~.d w.t.w.r.0.9.p.w.d g.kXSXHXHXCX( ..] %.' [ R - n XXg d.w.w.",
"d.d 7 ~.S '.OXK ) ' #.' ..J AXHXSXkXx.g w.9.0.0.0.8.9.q.8.i.8 j Q.jXHXCX( T ] ' ] ) I 6.'.E.W.g w.w.",
"t.d.k *Xn KX#XD o.#.@.] _ K CXSX-Xk g e.r.r.r.8.0.0.r.8 p.9.9.w.0 z hXDX^ P ] $.@.) D #XDXb XXk f r.",
"w.g Q.A [.KXcX; ) ' $.] _ H mX/.q a.w.r.9.r.9.9.w.9.9.e.9.w.9.r.q.j v xXW | $.$.$...; %XGX`.v.Q.6 p.",
"9.j -Xb HXKXMX4 | #.$.` &.F '.b.e h 6 9.w.r.r.r.8 p.9.w.w.w.r.8 e.w x.'.D { ' $.$.o.; bXAXZXN XXk 8 ",
"0 x.E.`.JXKXCX^ _ @.@.` %.L 2.FX.XQ.~.f.w.w.9.9.q.9.p.r.9.w.e.j z z.SX1.L { #.#.@._ ; vXDXJXS `.k.6 ",
"9 ~.N zXJXKXCX; | @.%.%.@.o.: bXGXSXNX;X5 y.r.9.8.p.8 9.y.y.x.jXNXFXmX: U ' #.@.@.o.; CXKXKXxXA ~.7 ",
"j (.N JXJXJXvXW | ' @.' @.+.Y <.GXFXFXNXc.j d u.r.9.r.u.f h nXFXSXAX<.Y  .' @.@.@.+.; vXKXJXKXN (.9 ",
"g.!.S JXJXKXcX- _ @.@.@.#.` ..D 5.KXGXZXVXf.8 r.w.r.u.t.g kXZXCXCXOXF ..` %.' @.@.) = cXDXDXJXA (.f.",
"c.b.[.KXKXKX#XG  .#.@.%.#.@.X.T = OXDXFXnXa.p.p.r.w.t.d f.VXSXJXOX= ..] { ' ' #.@.o.D #XGXFXHX`.c.x.",
"/.A hXJXKXDX6.H [ @.@.@.@.$.@.` ~ = 2.oXl.r w q.e.d d k k n.xX6.= T ` @.' ' #.@.' o.J 2.DXKXHX.Xv.b.",
"[.N zXHXHXDX^ T } @.' @.@.@.@.@.{ P H * , |.b.x k f.k v n., = H o.[ @.@.@.@.@.@.] _ T ( DXKXHXxXZ /.",
"[.A zXJXJX#XF X.} ' ' ' $.@.#.#.' %._ T G : i 2 O O O , 1 W U +.} @.@.@.@.@.#.@.' ] ) F #XJXJXxXA [.",
".XN zXJXCX<.R $.' } ' ' @.$.#.@.@.' ' ] &._ O.I H Y I T P _  .` ' ' #.#.@.@.@.@.@.' @.P <.KXHXNXN .X",
"[.N xXFX#X= X.$.' } ' @.$.#.@.@.@.@.#.#.#.#.@.%.%.] @.@.#.' ' } ' @.@.@.@.@.@.@.@.@.@.X.D #XKXzXN .X",
"!.S oXCXD T } ] @.@.' @.%.@.@.' @.@.@.@.@.@.' ' ' ' @.@.#.' @.' ' ' ' @.@.#.@.@.' ' #.{ T ; CXmXN [.",
"v.!.5.,.R ) ] @.@.@.@.@.@.@.@.@.' @.@.@.' ' ' ` } ` ' @.@.@.@.@.' ' ' @.@.@.#.@.' @.@.' X.I <.$XZ !.",
"k XX$ ( ..' ' @.@.@.@.@.@.@.' ' @.' #.@.%.%.} [ { ' { { { ' @.@.@.@.@.' @.@.' @.$.' ' ] ' | J @ ].z.",
"7 {.3 J o.@.@.@.@.@.@.@.@.@.' } _ |  ._ P L L L L L L L L P )  .{ ' ` ' @.@.@.@.@.$.$.@.' ` / @ }.h.",
"9 c.C.* o.@.@.@.@.' %.@.@.@.[ | I D G G E -.;.>.G.G.4.;.-.:.W D H L o.[ ' @.#.#.#.%.$.$.' ) K u &X0 ",
"q.q :X> Y ` ' @.' %.' ' { _ L H ! 7.K.aXgXfXyXyXyXyXuXyXfXfXaXK.7.-.D L | } @.#.@.' $.] ] ~ @ oXg.0 ",
"u.d x.|.# ~ } $.@.' ' _ I G ;.K.wXqXaXJ.a <X6XI.6XI.3XiXrX3.B.dXyXtXK.;.- F  .' ' %.' _ O.- m (.7 p.",
"u.u.7 {.3.* =.} ' '  .L E @XqX7XY.5X1XN.+XA.uXU.6XtXI.3XD.A.A.H.7XI.tXyX@XE L [ ` ' ` O.G > >Xf.8 p.",
"r.w.f k >Xm * ~ ' ` I :.uX0X5XY.U.tXH.p V.N.uXU.U.7XU.uXA.3.a S.iXI.6X6X9XwX! L  ._ O.= 2 :Xv 9 d r.",
"r.w.p.7 k ;X5.# I *.- L.qX2XY.T.6XtX<X    V.iXI.T.T.4XeXD.    S.uX6X6X8XR.9XL.= Q I # 1.:Xv a.p.r.9.",
"8.0.q.a.g j *X|., * % K.qX4XT.U.I.eX+XX   3.fXI.T.U.5XdXS.. . S.uXP.4X9XT.5X@X% % > |.=Xk 8 8 r.w.w.",
"9.8.8.w.w.y.g x.>XV.o L.wX4XT.6X6XeX<XX   V.iXY.T.Y.5XeX+X  . D.wX9X4XI.5XqX+XX C.>Xc.7 9.0.r.r.9.r.",
"0.9.w.w.9.9.q.9 5 =Xn.B.wX5X4X4X6X0XrXo . A.uXU.5X5X5XeX1X.   +XeXU.5X7XU.aXV.n.}.e w y.0.r.w.w.w.w.",
"r.r.w.w.r.9.0.0.8.g.n.V.aX4X4X0X0XU.fXs X 1X8X6X5X5X5X8XeX+ + iX9XU.Y.5XY.fX3.F.g.0 0.r.0.r.t.f w.w.",
"r.w.w.w.r.9.9.9.q.h.|.y aX3X7XU.T.U.4XR.1XuX9X6X5X5X7X4X3X1X3X2X2X9X9X4X5XeXy {.q.0.0.0.r.w.y.d w.w.",
"w.w.t.w.w.r.r.9.8.5 &Xp D.eX2X6XT.U.7X7XtXU.U.T.Y.5X6X6X7X7XT.0X5X5X4X4XuXB.V ).9.0.8.0.9.w.t.t.w.w.",
"9.r.t.t.0.r.r.w.r.p.h.=XO sXiX2XU.9XU.5XT.T.T.T.7XI.7X4X4XP.Y.U.0X5X5XeX<Xt =Xa.8 9.0.u.9.0.w.r.w.r.",
"9.r.w.w.s.0.w.w.w.9.8 m.{.t +XfXuXeX0X8XT.I.tXT.U.4X0X0X8X2X0X5X0XwXuXsXt |.m.9 w.w.r.r.8.0.9.r.w.9.",
"w.w.w.w.0.0.w.w.w.r.w.j m.&Xy a A.rXfXyXyXyXtXtXtXtXeXdXiXfXwXeXrXH.3.t {.~.w 9 i.w.f w.8.0.r.r.r.w.",
"r.w.w.f 8.8.e.e.w.9.u.e.0 z.=XM.B p p C N.B.D.D.H.H.D.A.B.N.a a p V n.=Xc.q q.9.r.t.t.e.9.8.9.r.9.w.",
"9.r.w.9.9.9.w.9.w.w.w.w.y.9 w g.~.^.^.M.n.B B B V B B B n.n.!.^.&XM.x.a.8 8 p.8.w.r.w.r.9.9.9.r.w.9.",
"w.w.r.9.r.w.r.w.9.r.8 9.w.w.w.e.6 g z j.b.!./.[.[.[.]./.b.c.j.c 7 0 8 9.r.r.w.w.r.9.9.9.r.w.w.w.r.w."
};
