/* XPM */
static char *_dcf8737f6a14769a1e72cc207693d8cgf0lWyP5oKS5KEbk[] = {
/* columns rows colors chars-per-pixel */
"50 50 158 2 ",
"   c #3D3E37",
".  c #3F3F3B",
"X  c #403F3B",
"o  c #404736",
"O  c #42443D",
"+  c #434A3C",
"@  c #47513D",
"#  c #4B573D",
"$  c #464642",
"%  c #474944",
"&  c #4A4B45",
"*  c #474A4A",
"=  c #4C4D4A",
"-  c #514F4B",
";  c #4C5345",
":  c #4F5A43",
">  c #4E524C",
",  c #515D45",
"<  c #51524E",
"1  c #545C4D",
"2  c #4F5251",
"3  c #545552",
"4  c #585754",
"5  c #565955",
"6  c #595A56",
"7  c #545758",
"8  c #565A59",
"9  c #5B5D5A",
"0  c #536047",
"q  c #55614C",
"w  c #59644D",
"e  c #576849",
"r  c #5D6B4E",
"t  c #576052",
"y  c #5B6353",
"u  c #5D6A54",
"i  c #5D625C",
"p  c #5F6B5C",
"a  c #5E715B",
"s  c #606C56",
"d  c #61645E",
"f  c #636C5D",
"g  c #647255",
"h  c #64725D",
"j  c #69755F",
"k  c #6B7D5F",
"l  c #5C5E64",
"z  c #5E6363",
"x  c #5F6865",
"c  c #5F6468",
"v  c #626563",
"b  c #646A65",
"n  c #6A6C65",
"m  c #63666A",
"M  c #656B6A",
"N  c #6A6D6B",
"B  c #706E67",
"V  c #706E68",
"C  c #657364",
"Z  c #6B7365",
"A  c #677964",
"S  c #6A7B65",
"D  c #66726C",
"F  c #6B736D",
"G  c #6C7A6B",
"H  c #707266",
"J  c #72746C",
"K  c #737B6D",
"L  c #7A7A6E",
"P  c #656671",
"I  c #666C72",
"U  c #696D73",
"Y  c #6C6D79",
"T  c #677171",
"R  c #6C7473",
"E  c #6D7A74",
"W  c #6E7579",
"Q  c #6F7979",
"!  c #727572",
"~  c #787771",
"^  c #737A74",
"/  c #7B7C74",
"(  c #71757B",
")  c #747B7B",
"_  c #797E7C",
"`  c #817F7A",
"'  c #6C8060",
"]  c #788467",
"[  c #73826C",
"{  c #798468",
"}  c #768273",
"|  c #7B8374",
" . c #7D8A73",
".. c #77817C",
"X. c #7C847D",
"o. c #7C837C",
"O. c #7E887D",
"+. c #7F897E",
"@. c #828275",
"#. c #818077",
"$. c #818276",
"%. c #808377",
"&. c #828C76",
"*. c #81807C",
"=. c #82817C",
"-. c #83827C",
";. c #80827F",
":. c #82867E",
">. c #85857F",
",. c #82847C",
"<. c #828878",
"1. c #858A7E",
"2. c #858B7E",
"3. c #838A7D",
"4. c #8C937E",
"5. c #767584",
"6. c #757880",
"7. c #777A82",
"8. c #767C81",
"9. c #7A7F81",
"0. c #7B7D86",
"q. c #797E82",
"w. c #778080",
"e. c #7D8080",
"r. c #7D8383",
"t. c #828581",
"y. c #818187",
"u. c #838785",
"i. c #828581",
"p. c #888780",
"a. c #828981",
"s. c #858882",
"d. c #848C83",
"f. c #828984",
"g. c #838A85",
"h. c #838887",
"j. c #838987",
"k. c #878A84",
"l. c #858B87",
"z. c #858984",
"x. c #888B81",
"c. c #888B84",
"v. c #8A8D84",
"b. c #88878D",
"n. c #868B88",
"m. c #858B89",
"M. c #8C8C8D",
"N. c #8D8E8D",
"B. c #8A8D89",
"V. c #8D9186",
"C. c #8F918F",
"Z. c #8F938F",
"A. c #8E918A",
"S. c #919485",
"D. c #90918E",
"F. c #92948C",
"G. c #97988B",
"H. c #909490",
/* pixels */
"* < < > < < ; % % & ; & ; ; > & & & $ % - 4 - X X 4 v n v v y & ; 1 4 1 - - 9 3 O $ 2 3 8 3 8 3 < * ",
"F ^ / ` #.#.L 6 9 h A j j h y < v J ~ ` ` ` ~ - < ` k.p.` >./ w u | 1.&.` @.x.^ 3 n } _ X.r.>.,.Q 3 ",
"D.Z.Z.N.c.2./ i Z } [ [ k ' h i ;.H.M.b.y._ ! 9 v u.b.) ( _ K 1 p O.d.r.| | o.T 6 G  .X.g.m.c.r.^ 8 ",
"j.9.7.6.( T b 8 b A A A A A b 6 ! ` 0.5.Y P m 9 d ( ! U R D m 4 i D G E R m N z 3 h A ) ) W E T x 2 ",
"_ ( ( 5.( U b 3 d F G [ ^ F v 3 N Y Y Y P P m 4 8 N U U Y N b 7 9 x M T 8.I M i 3 x N I Y P N I x 2 ",
"N M m N U N d - 6 n C b n n 9 < 9 v v v n v 9 - = 9 z z c z 9 = = 9 z z M v 9 3 * i x z l c m z 7 = ",
"z 9 6 4 < 3 3 = 6 d 9 9 6 6 6 < < 3 4 9 4 4 4 3 2 3 3 > & $ = = = < > = = * > = & > 3 3 2 2 9 8 8 8 ",
"s.t./ 9 & d ~ / @.>.>.` b d J H B L #./ l v ~ ` o._ / ^ 8 % d S [ ^ ^ F 8 3 D E G R R ^ M 7 U t.t.s.",
"j.r.r.b < ~ A.Z.A.F.G.c.D n X.t.n.Z.B._ b _ ..) _ ) ) Q z 3 G ..w.j.k.w.b b X.g.r.r.r.r.T 8 _ n.m.m.",
"W R R i < J _ _ _ _ _ F 5 i R ( ( _ _ N 9 ! T I W W Q R i > I Q q.q._ D i d } .._ 8...W c 5 R ( W W ",
"U T T z 3 F ) ) W R D i : t m ( Y Y ( v < C E W 6.W ) R 8 2 x S ) ) R b 1 y E T Y P P I z 2 D R T W ",
"m m m 6 < m J N N D u 0 ; 6 n Y N N N 9 ; y x M c I I m 5 > t u p b N v 1 5 x x c c l x i > v m m m ",
"> = - = - 3 3 3 8 y e # # 1 d n l 9 4 < w u i i 8 q 1 2 * = * ; < < < 1 ; 1 < - 2 2 2 3 = * 3 3 > 3 ",
"O = 9 v n n n n n u r g h H L / / ~ s Z }  .} ^ G u : t p z i i w 1 > ; y d 9 y 8 8 3 4 i i 9 6 3 2 ",
"3 V B.B.B.D.D.B.,.s g &.V.2.2.4.F.>.v / r.r.....} a q S } 3.f.r.| F 6 s %.V.B.2.s._ l N =.t.-.=.=.=.",
"9 ! 9.o.o.y.t.o.F w f O.,.^ S E ^ n 9 F G E E D C q , A [ o.u.w.E Z 9 f 2.B.B.m.r.) i F ) _ r.r.r.r.",
"8 M F R ( ( ( F z 1 i ^ E D A F n v y n D D N b p 0 , a A ) w.6.! n 6 v o.w.r.9.) T 8 m ! w.u.w._ _ ",
"; y n n ! ! G F b 5 9 J Z A n b n v i b n n M b u : : f D R W R N v 3 v E ( ) ( R N 8 v ! _ _ o./ ! ",
"& > 4 4 4 6 6 9 9 < < 6 9 y d i i 9 2 5 6 4 4 6 4 > ; 9 v v l 8 4 < = 5 9 9 l i 9 6 = < 6 9 u w w 1 ",
"w i d 4 % - 9 f d 9 d 9 1 5 n ! ~ J F b < < d N J J J J N 8 3 3 3 < 3 6 6 - 8 d 9 d < < = % ; 0 q w ",
"&.3.f.^ > b ,.,.%.,.,.| Z b k.A.B.D.B.%.n d k.F.D.Z.B.n.-.d n ` 3.,.3.c./ i ^ 3.v.B.n.o.! 5 u |  .&.",
"O...X.T 3 x F F F U G G n N _ w.r.y._ S d n j.V.k.r.r.r.! 6 J s.V.m.n.n.^ i } X.n.u..._ K 9 f } } } ",
"D D D b > 5 C b m M N D b n ^ ( _ r.o.F 8 v o...^ ( 7._ N 5 m _ w.w._ ) m d G ^ ) ( U I M 3 i Z h h ",
"A C b b & ; x z v m T D f b R T T ! F b 4 d K N N W ( ! v 3 b W Q 6.Q R v 9 T T R Y P M x 3 y C h h ",
"9 i u 1 O + : < q i i z 6 8 i i 9 4 5 4 3 6 z i 9 x b d 6 3 v N I M b b 9 3 z m m l v i 8 & > i y y ",
"  % ; ; $ O o + & < 6 3 3 6 9 3 = < 3 6 6 9 d 9 > 1 n n n N ! N 8 3 z v i l i v 9 3 9 d i 3 i v 9 3 ",
"O f ~ / / L L s > b o.,.>.s.>.m < H -.>.` / _ F 5 9 | >._ } #.^ 8 M r.X.| 3.t.r.U 4 ! o.X.t.r.t.| } ",
"> | A.,.o.t.=.n < ^ V.c.B.B.N.! 9 ` s.) R N N C 9 u } ^ n F R m 3 N m.m.r.r._ R l 3 ) ) ( ) 7.) ( E ",
"3 ! E b m R Y i > ! o.Q R ( ( N 9 B N m M m m v 6 p ^ T x D T c < v _ w.W W T x 8 4 ! I P P 6.W N M ",
"3 D F v D K ( x = F _ I N U T n < d b v n N m z 5 6 D N b M T M = 8 x b I I I c l 4 T M c P P m M M ",
"> z i 8 9 f b 8 & 9 m c v M N l & ; 6 6 6 6 3 < % & 5 3 < 5 9 8 % O * 2 7 8 8 5 2 2 z 8 7 9 8 5 5 8 ",
"v i 9 < = & = = = > 9 9 9 4 3 3 * & & ; $ X O & > < 4 < = % % < 8 3 1 5 5 * * > 1 2 > = = - * = 3 i ",
"c.s.` / v - d ~ V ! ( / ! 4 6 J ~ L / / d O 5 ~ o.,.3.o.^ 9 > K x.>.| ,.X.M y G ^ K G ^ / _ 9 n ` s.",
"_ ) ) ~ d 3 J ` ` ( ! J N 9 N v.X.^ >.x.J < N k.3.O.r.r.o.v > o.k.o.F _ w.T C } } } ....r.^ 9 ^ _ ) ",
"U N N v 4 4 N ( ( U m v l 9 V ` J N R F d ; b ^ Q ) _ ) ! 6 = F Q D b T E y y S E E G E _ m 9 J F N ",
"V N n P l 3 v V P P m l l 4 N ) Q R R b u ; w C Q w.w._ ! 8 = v b D E F C t q a h A D D N i 4 v m N ",
"m v d v 4 - 4 d l l m v l 3 9 n N m n b r # : 6 a T R R N 3 & 6 i D N D b q ; 1 q y y z i 5 > 8 v v ",
"< - & - - - - 4 4 < 4 4 < - - 3 < 4 3 1 q # , , 1 5 = = & O + & & > - : : @ o o + > * $ . $ * = = 3 ",
"9 - 9 B V B J ~ V V 6 < j N J B n n i 1 j ] { | %.! 3 O 6 n J H n n 6 % & q q 1 t z 8 $ $ 4 x v d 9 ",
"( d 5.F.b.>.>.>.-./ 9 9 p.D.B.s.| L F d ,.2.s.k.c.t.v < / k.c.c.<.| J 9 9 | &.&.+.r._ 8 x r.k.s.-.o.",
"N v _ B._ ) ! U P n 6 d -.=.>.o.D D v 6 ! ^ ! ) r.r.n 9 T N W ) T N x > z o.r.o...Q E 8 M Q w.X.^ R ",
"v 9 ^ t.( ( Y M m n 6 d K A A G C N b 8 M N T _ m.r.v < x x U W W M i & i R 7.5.Q D M 3 8 M D C h b ",
"v 4 J ! N N m v v v 4 w g u u f v d y < i x m T ( U 7 = 8 9 v b M x 8 % , x W ( W M z 8 8 x x p u s ",
"9 3 6 6 4 = 3 6 4 4 - 1 w w w q 1 < = & 2 > = = < = & & > & & > > = $   $ : 7 9 8 8 3 = > ; 1 q 1 q ",
"J J K J b = = 9 v d f f g u 0 r j F F N m = % 6 f n n n n i $ = t 1 ; - > & o - 6 9 i 9 8 > # : h Z ",
"v.B.c.c.) 3 v x.B.S.S.4. .S g [ &.B.B.>.( 4 3 / >.o.<.<.=.T > i X.o.%.>.,.N > K o.o.,.,.O./ y f &.d.",
"o.o.( ) T 3 F B.1.o.O.O.} A b ^ X.r._ Y b 3 1 F R T ( / K b = b ..9.y.r.9.b 4 G _ W W Q w.^ u C X...",
"Q T U U m 6 n | R F ( W D i i ^ R R U m m 3 > b F R ( ( F 9 - v R W 7.q.R 9 2 M T I I R Q N y F ..R ",
"M M m N b 3 9 F F R ! U N i 6 F F I I m m - < z F ! ! R R 9 = 9 D M W Q D 9 > i M I Y I C h 5 d R U ",
"8 z z z v < > i v b v d v 9 9 m M i 9 9 4 & % 8 i v 9 v d 4 & 6 b p b D x 8 > 8 i c N x u t = 3 i i "
};
